<mxfile host="app.diagrams.net" modified="2021-05-20T01:54:25.893Z" agent="5.0 (Macintosh; Intel Mac OS X 10_15_7) AppleWebKit/605.1.15 (KHTML, like Gecko) Version/13.1.3 Safari/605.1.15" etag="3exIqT5LZDfteMNEkAxX" version="14.6.13" type="github">
  <diagram name="Page-1" id="929967ad-93f9-6ef4-fab6-5d389245f69c">
    <mxGraphModel dx="1113" dy="853" grid="1" gridSize="10" guides="1" tooltips="1" connect="1" arrows="1" fold="1" page="1" pageScale="1.5" pageWidth="1169" pageHeight="826" background="none" math="0" shadow="0">
      <root>
        <mxCell id="0" style=";html=1;" />
        <mxCell id="1" style=";html=1;" parent="0" />
        <mxCell id="1672d66443f91eb5-23" value="Title" style="text;strokeColor=none;fillColor=none;html=1;fontSize=24;fontStyle=1;verticalAlign=middle;align=center;" parent="1" vertex="1">
          <mxGeometry x="120" y="40" width="1510" height="40" as="geometry" />
        </mxCell>
        <mxCell id="yEWoqUiM4OorlA2c4pws-1" value="&lt;p style=&quot;margin: 4px 0px 0px ; text-align: center ; font-size: 14px&quot;&gt;&lt;b&gt;&lt;font style=&quot;font-size: 14px&quot; face=&quot;Lucida Console&quot;&gt;Symbol&lt;/font&gt;&lt;/b&gt;&lt;/p&gt;&lt;hr size=&quot;1&quot; style=&quot;font-size: 14px&quot;&gt;&lt;p style=&quot;margin: 0px 0px 0px 4px ; font-size: 14px&quot;&gt;&lt;font style=&quot;font-size: 14px&quot; face=&quot;Lucida Console&quot;&gt;&lt;span style=&quot;color: rgb(50 , 50 , 50) ; background-color: rgba(255 , 255 , 255 , 0.01)&quot;&gt;+ outputs: vector&amp;lt;comgraph::NodeEdge&amp;gt;&lt;/span&gt;&lt;span style=&quot;color: rgb(50 , 50 , 50) ; background-color: rgba(255 , 255 , 255 , 0.01)&quot;&gt;&amp;nbsp;&lt;/span&gt;&lt;/font&gt;&lt;/p&gt;&lt;div style=&quot;resize: none ; outline: 0px ; color: rgb(50 , 50 , 50) ; background-color: rgba(255 , 255 , 255 , 0.01) ; font-size: 14px&quot;&gt;&lt;div style=&quot;resize: none ; outline: 0px&quot;&gt;&lt;font style=&quot;font-size: 14px&quot; face=&quot;Lucida Console&quot;&gt;&amp;nbsp;- params_: unordered_map&amp;lt;string, string&amp;gt;&amp;nbsp;&lt;/font&gt;&lt;div style=&quot;resize: none ; outline: 0px&quot;&gt;&lt;/div&gt;&lt;font style=&quot;font-size: 14px&quot; face=&quot;Lucida Console&quot;&gt;&amp;nbsp;- input_symbols_: vector&amp;lt;SymbolHandle&amp;gt;&amp;nbsp;&lt;/font&gt;&lt;/div&gt;&lt;div style=&quot;resize: none ; outline: 0px&quot;&gt;&lt;div style=&quot;resize: none ; outline: 0px&quot;&gt;&lt;/div&gt;&lt;font style=&quot;font-size: 14px&quot; face=&quot;Lucida Console&quot;&gt;&amp;nbsp;- input_ndarrays_: vector&amp;lt;NDArray&amp;gt;&amp;nbsp;&lt;/font&gt;&lt;div style=&quot;resize: none ; outline: 0px&quot;&gt;&lt;/div&gt;&lt;font style=&quot;font-size: 14px&quot; face=&quot;Lucida Console&quot;&gt;&amp;nbsp;- input_keys_: vector&amp;lt;string&amp;gt;&amp;nbsp;&lt;/font&gt;&lt;div style=&quot;resize: none ; outline: 0px&quot;&gt;&lt;/div&gt;&lt;font style=&quot;font-size: 14px&quot; face=&quot;Lucida Console&quot;&gt;&amp;nbsp;- blob_ptr_:&amp;nbsp;shared_ptr&amp;lt;SymBlob&amp;gt;&lt;/font&gt;&lt;/div&gt;&lt;/div&gt;&lt;hr size=&quot;1&quot; style=&quot;font-size: 14px&quot;&gt;&lt;div style=&quot;resize: none ; outline: 0px ; color: rgb(50 , 50 , 50) ; background-color: rgba(255 , 255 , 255 , 0.01) ; font-size: 14px&quot;&gt;&lt;font style=&quot;font-size: 14px&quot; face=&quot;Lucida Console&quot;&gt;&amp;nbsp;+ Symbol(operator_name: const string)&lt;/font&gt;&lt;/div&gt;&lt;div style=&quot;resize: none ; outline: 0px ; color: rgb(50 , 50 , 50) ; background-color: rgba(255 , 255 , 255 , 0.01) ; font-size: 14px&quot;&gt;&lt;font style=&quot;font-size: 14px&quot; face=&quot;Lucida Console&quot;&gt;&amp;nbsp;+&amp;nbsp;Variable(name: const string): Symbol&lt;/font&gt;&lt;/div&gt;&lt;div style=&quot;resize: none ; outline: 0px ; color: rgb(50 , 50 , 50) ; background-color: rgba(255 , 255 , 255 , 0.01) ; font-size: 14px&quot;&gt;&lt;font style=&quot;font-size: 14px&quot; face=&quot;Lucida Console&quot;&gt;&amp;nbsp;+ CreateOpFunctor(op: const comgraph::Op*): Symbol&lt;/font&gt;&lt;/div&gt;&lt;div style=&quot;resize: none ; outline: 0px ; color: rgb(50 , 50 , 50) ; background-color: rgba(255 , 255 , 255 , 0.01) ; font-size: 14px&quot;&gt;&lt;font style=&quot;font-size: 14px&quot; face=&quot;Lucida Console&quot;&gt;&amp;nbsp;+&amp;nbsp;ConstructSymbol(name: const string): Symbol&lt;/font&gt;&lt;/div&gt;&lt;div style=&quot;resize: none ; outline: 0px ; color: rgb(50 , 50 , 50) ; background-color: rgba(255 , 255 , 255 , 0.01) ; font-size: 14px&quot;&gt;&lt;font style=&quot;font-size: 14px&quot; face=&quot;Lucida Console&quot;&gt;&lt;br&gt;&lt;/font&gt;&lt;/div&gt;&lt;div style=&quot;resize: none ; outline: 0px ; color: rgb(50 , 50 , 50) ; background-color: rgba(255 , 255 , 255 , 0.01) ; font-size: 14px&quot;&gt;&lt;font style=&quot;font-size: 14px&quot; face=&quot;Lucida Console&quot;&gt;&amp;nbsp;+ SetParam(name: string, value: T): Symbol&amp;amp;&lt;/font&gt;&lt;/div&gt;&lt;div style=&quot;resize: none ; outline: 0px ; color: rgb(50 , 50 , 50) ; background-color: rgba(255 , 255 , 255 , 0.01) ; font-size: 14px&quot;&gt;&lt;font style=&quot;font-size: 14px&quot; face=&quot;Lucida Console&quot;&gt;&amp;nbsp;+ SetInput(name: string, sym: Symbol): Symbol&amp;amp;&lt;/font&gt;&lt;/div&gt;&lt;div style=&quot;resize: none ; outline: 0px ; color: rgb(50 , 50 , 50) ; background-color: rgba(255 , 255 , 255 , 0.01) ; font-size: 14px&quot;&gt;&lt;font style=&quot;font-size: 14px&quot; face=&quot;Lucida Console&quot;&gt;&amp;nbsp;+ Compose()&lt;/font&gt;&lt;/div&gt;&lt;div style=&quot;resize: none ; outline: 0px ; color: rgb(50 , 50 , 50) ; background-color: rgba(255 , 255 , 255 , 0.01) ; font-size: 14px&quot;&gt;&lt;font style=&quot;font-size: 14px&quot; face=&quot;Lucida Console&quot;&gt;&lt;br&gt;&lt;/font&gt;&lt;/div&gt;&lt;div style=&quot;resize: none ; outline: 0px ; color: rgb(50 , 50 , 50) ; background-color: rgba(255 , 255 , 255 , 0.01) ; font-size: 14px&quot;&gt;&lt;font style=&quot;font-size: 14px&quot; face=&quot;Lucida Console&quot;&gt;&amp;nbsp;+ InferShape(&lt;/font&gt;&lt;/div&gt;&lt;div style=&quot;resize: none ; outline: 0px ; color: rgb(50 , 50 , 50) ; background-color: rgba(255 , 255 , 255 , 0.01) ; font-size: 14px&quot;&gt;&lt;font style=&quot;font-size: 14px&quot; face=&quot;Lucida Console&quot;&gt;&amp;nbsp; &amp;nbsp; &amp;nbsp; arg_shapes: map&amp;lt;string, vector&amp;lt;size_t&amp;gt;,&amp;nbsp;&lt;/font&gt;&lt;/div&gt;&lt;div style=&quot;resize: none ; outline: 0px ; color: rgb(50 , 50 , 50) ; background-color: rgba(255 , 255 , 255 , 0.01) ; font-size: 14px&quot;&gt;&lt;font style=&quot;font-size: 14px&quot; face=&quot;Lucida Console&quot;&gt;&amp;nbsp; &amp;nbsp; &amp;nbsp; in_shape:&amp;nbsp;vector&amp;lt;std::vector&amp;lt;size_t&amp;gt;&amp;gt;*,&lt;br&gt;&lt;/font&gt;&lt;/div&gt;&lt;div style=&quot;resize: none ; outline: 0px ; color: rgb(50 , 50 , 50) ; background-color: rgba(255 , 255 , 255 , 0.01) ; font-size: 14px&quot;&gt;&lt;font style=&quot;font-size: 14px&quot; face=&quot;Lucida Console&quot;&gt;&amp;nbsp; &amp;nbsp; &amp;nbsp; aux_shape:vector &amp;lt;std::vector&amp;lt;size_t&amp;gt;&amp;gt;*,&lt;/font&gt;&lt;/div&gt;&lt;div style=&quot;resize: none ; outline: 0px ; color: rgb(50 , 50 , 50) ; background-color: rgba(255 , 255 , 255 , 0.01) ; font-size: 14px&quot;&gt;&lt;font style=&quot;font-size: 14px&quot; face=&quot;Lucida Console&quot;&gt;&amp;nbsp; &amp;nbsp; &amp;nbsp; out_shape:&amp;nbsp;vector&amp;lt;std::vector&amp;lt;size_t&amp;gt;&amp;gt;*&lt;/font&gt;&lt;/div&gt;&lt;div style=&quot;resize: none ; outline: 0px ; color: rgb(50 , 50 , 50) ; background-color: rgba(255 , 255 , 255 , 0.01) ; font-size: 14px&quot;&gt;&lt;font style=&quot;font-size: 14px&quot; face=&quot;Lucida Console&quot;&gt;&amp;nbsp; &amp;nbsp;)&lt;/font&gt;&lt;/div&gt;&lt;div style=&quot;resize: none ; outline: 0px ; color: rgb(50 , 50 , 50) ; background-color: rgba(255 , 255 , 255 , 0.01) ; font-size: 14px&quot;&gt;&lt;font style=&quot;font-size: 14px&quot; face=&quot;Lucida Console&quot;&gt;&amp;nbsp;+ InferArgsMap(&lt;/font&gt;&lt;/div&gt;&lt;div style=&quot;resize: none ; outline: 0px ; color: rgb(50 , 50 , 50) ; background-color: rgba(255 , 255 , 255 , 0.01) ; font-size: 14px&quot;&gt;&lt;font style=&quot;font-size: 14px&quot; face=&quot;Lucida Console&quot;&gt;&amp;nbsp; &amp;nbsp; &amp;nbsp; ctx: Context,&amp;nbsp;&lt;/font&gt;&lt;/div&gt;&lt;div style=&quot;resize: none ; outline: 0px ; color: rgb(50 , 50 , 50) ; background-color: rgba(255 , 255 , 255 , 0.01) ; font-size: 14px&quot;&gt;&lt;font style=&quot;font-size: 14px&quot; face=&quot;Lucida Console&quot;&gt;&amp;nbsp; &amp;nbsp; &amp;nbsp; args_map: map&amp;lt;string, NDArray&amp;gt;*,&lt;/font&gt;&lt;/div&gt;&lt;div style=&quot;resize: none ; outline: 0px ; color: rgb(50 , 50 , 50) ; background-color: rgba(255 , 255 , 255 , 0.01) ; font-size: 14px&quot;&gt;&lt;font style=&quot;font-size: 14px&quot; face=&quot;Lucida Console&quot;&gt;&amp;nbsp; &amp;nbsp; &amp;nbsp;&amp;nbsp;known_args: const&amp;nbsp;map&amp;lt;string, NDArray&amp;gt;&amp;amp;&lt;/font&gt;&lt;/div&gt;&lt;div style=&quot;resize: none ; outline: 0px ; color: rgb(50 , 50 , 50) ; background-color: rgba(255 , 255 , 255 , 0.01) ; font-size: 14px&quot;&gt;&lt;font style=&quot;font-size: 14px&quot; face=&quot;Lucida Console&quot;&gt;&amp;nbsp; &amp;nbsp;)&lt;/font&gt;&lt;/div&gt;&lt;div style=&quot;resize: none ; outline: 0px ; color: rgb(50 , 50 , 50) ; background-color: rgba(255 , 255 , 255 , 0.01) ; font-size: 14px&quot;&gt;&lt;font style=&quot;font-size: 14px&quot; face=&quot;Lucida Console&quot;&gt;&amp;nbsp;+ SimpleBind(&lt;/font&gt;&lt;/div&gt;&lt;p style=&quot;margin: 0px 0px 0px 4px ; font-size: 14px&quot;&gt;&lt;span style=&quot;color: rgb(50 , 50 , 50) ; background-color: rgba(255 , 255 , 255 , 0.01)&quot;&gt;&lt;font style=&quot;font-size: 14px&quot; face=&quot;Lucida Console&quot;&gt;&amp;nbsp; &amp;nbsp; &amp;nbsp;ctx: Context,&amp;nbsp;&lt;/font&gt;&lt;/span&gt;&lt;/p&gt;&lt;div style=&quot;resize: none ; outline: 0px ; color: rgb(50 , 50 , 50) ; background-color: rgba(255 , 255 , 255 , 0.01) ; font-size: 14px&quot;&gt;&lt;/div&gt;&lt;div style=&quot;resize: none ; outline: 0px ; color: rgb(50 , 50 , 50) ; background-color: rgba(255 , 255 , 255 , 0.01) ; font-size: 14px&quot;&gt;&lt;font style=&quot;font-size: 14px&quot; face=&quot;Lucida Console&quot;&gt;&amp;nbsp; &amp;nbsp; &amp;nbsp;args_map: map&amp;lt;string, NDArray&amp;gt;*,&lt;/font&gt;&lt;/div&gt;&lt;div style=&quot;resize: none ; outline: 0px ; color: rgb(50 , 50 , 50) ; background-color: rgba(255 , 255 , 255 , 0.01) ; font-size: 14px&quot;&gt;&lt;font style=&quot;font-size: 14px&quot; face=&quot;Lucida Console&quot;&gt;&amp;nbsp; &amp;nbsp; &amp;nbsp;grad_req_type:&amp;nbsp;map&amp;lt;string, exec::OpReqType&amp;gt;&lt;/font&gt;&lt;/div&gt;&lt;div style=&quot;resize: none ; outline: 0px ; color: rgb(50 , 50 , 50) ; background-color: rgba(255 , 255 , 255 , 0.01) ; font-size: 14px&quot;&gt;&lt;font style=&quot;font-size: 14px&quot; face=&quot;Lucida Console&quot;&gt;&amp;nbsp; &amp;nbsp;)&lt;br&gt;&lt;/font&gt;&lt;/div&gt;&lt;div style=&quot;resize: none ; outline: 0px ; color: rgb(50 , 50 , 50) ; background-color: rgba(255 , 255 , 255 , 0.01) ; font-size: 14px&quot;&gt;&lt;font style=&quot;font-size: 14px&quot; face=&quot;Lucida Console&quot;&gt;&lt;br&gt;&lt;/font&gt;&lt;/div&gt;&lt;div style=&quot;resize: none ; outline: 0px ; color: rgb(50 , 50 , 50) ; background-color: rgba(255 , 255 , 255 , 0.01) ; font-size: 14px&quot;&gt;&lt;font style=&quot;font-size: 14px&quot; face=&quot;Lucida Console&quot;&gt;&amp;nbsp;+ ListAttrs(option: ListAttrOption):&amp;nbsp;unordered_map&amp;lt;string, string&amp;gt;&lt;/font&gt;&lt;/div&gt;&lt;div style=&quot;resize: none ; outline: 0px ; color: rgb(50 , 50 , 50) ; background-color: rgba(255 , 255 , 255 , 0.01) ; font-size: 14px&quot;&gt;&lt;font style=&quot;font-size: 14px&quot; face=&quot;Lucida Console&quot;&gt;&amp;nbsp;+ ListArguments():&amp;nbsp;vector&amp;lt;string&amp;gt;&lt;/font&gt;&lt;/div&gt;&lt;div style=&quot;resize: none ; outline: 0px ; color: rgb(50 , 50 , 50) ; background-color: rgba(255 , 255 , 255 , 0.01) ; font-size: 14px&quot;&gt;&lt;font style=&quot;font-size: 14px&quot; face=&quot;Lucida Console&quot;&gt;&amp;nbsp;+ ListInputs(option: ListAttrOption):&amp;nbsp;comgraph::NodePtr&lt;/font&gt;&lt;/div&gt;&lt;div style=&quot;resize: none ; outline: 0px ; color: rgb(50 , 50 , 50) ; background-color: rgba(255 , 255 , 255 , 0.01) ; font-size: 14px&quot;&gt;&lt;font style=&quot;font-size: 14px&quot; face=&quot;Lucida Console&quot;&gt;&lt;br&gt;&lt;/font&gt;&lt;/div&gt;&lt;div style=&quot;resize: none ; outline: 0px ; color: rgb(50 , 50 , 50) ; background-color: rgba(255 , 255 , 255 , 0.01) ; font-size: 14px&quot;&gt;&lt;font style=&quot;font-size: 14px&quot; face=&quot;Lucida Console&quot;&gt;&amp;nbsp;+ Save(file_name: string)&lt;/font&gt;&lt;/div&gt;&lt;div style=&quot;resize: none ; outline: 0px ; color: rgb(50 , 50 , 50) ; background-color: rgba(255 , 255 , 255 , 0.01) ; font-size: 14px&quot;&gt;&lt;font style=&quot;font-size: 14px&quot; face=&quot;Lucida Console&quot;&gt;&amp;nbsp;+ Load(file_name: string): Symbol&lt;/font&gt;&lt;/div&gt;" style="verticalAlign=top;align=left;overflow=fill;fontSize=12;fontFamily=Helvetica;html=1;" vertex="1" parent="1">
          <mxGeometry x="350" y="410" width="390" height="620" as="geometry" />
        </mxCell>
        <mxCell id="yEWoqUiM4OorlA2c4pws-2" value="&lt;p style=&quot;margin: 0px ; margin-top: 4px ; text-align: center&quot;&gt;&lt;br&gt;&lt;b&gt;SymBlob&lt;/b&gt;&lt;/p&gt;" style="verticalAlign=top;align=left;overflow=fill;fontSize=12;fontFamily=Helvetica;html=1;" vertex="1" parent="1">
          <mxGeometry x="870" y="580" width="140" height="60" as="geometry" />
        </mxCell>
      </root>
    </mxGraphModel>
  </diagram>
</mxfile>
